<svg width="20" height="17" viewBox="0 0 20 17" fill="none" xmlns="http://www.w3.org/2000/svg">
<g clip-path="url(#clip0_16_184)">
<path fill-rule="evenodd" clip-rule="evenodd" d="M7 1C3.68629 1 1 3.68629 1 7C1 9.79576 2.91216 12.1449 5.5 12.811V16L8.92857 13H13C16.3137 13 19 10.3137 19 7C19 3.68629 16.3137 1 13 1H7Z" fill="white"/>
<path d="M5.5 12.811H6C6 12.5828 5.84557 12.3836 5.62463 12.3268L5.5 12.811ZM5.5 16H5C5 16.1962 5.11474 16.3742 5.29339 16.4553C5.47205 16.5364 5.68161 16.5055 5.82925 16.3763L5.5 16ZM8.92857 13V12.5C8.80746 12.5 8.69046 12.544 8.59932 12.6237L8.92857 13ZM1.5 7C1.5 3.96243 3.96243 1.5 7 1.5V0.5C3.41015 0.5 0.5 3.41015 0.5 7H1.5ZM5.62463 12.3268C3.25233 11.7162 1.5 9.56209 1.5 7H0.5C0.5 10.0294 2.57198 12.5737 5.37537 13.2952L5.62463 12.3268ZM6 16V12.811H5V16H6ZM8.59932 12.6237L5.17075 15.6237L5.82925 16.3763L9.25782 13.3763L8.59932 12.6237ZM13 12.5H8.92857V13.5H13V12.5ZM18.5 7C18.5 10.0376 16.0376 12.5 13 12.5V13.5C16.5899 13.5 19.5 10.5899 19.5 7H18.5ZM13 1.5C16.0376 1.5 18.5 3.96243 18.5 7H19.5C19.5 3.41015 16.5899 0.5 13 0.5V1.5ZM7 1.5H13V0.5H7V1.5Z" fill="#454E56"/>
</g>
<defs>
<clipPath id="clip0_16_184">
<rect width="20" height="17" fill="white"/>
</clipPath>
</defs>
</svg>
