<svg width="14" height="14" viewBox="0 0 14 14" fill="none" xmlns="http://www.w3.org/2000/svg">
<path d="M5.25001 8.16683L5.53759 8.21466C5.54454 8.1729 5.5423 8.13012 5.53105 8.08931C5.5198 8.04849 5.49979 8.01062 5.47243 7.97831C5.44506 7.946 5.41099 7.92004 5.37258 7.90223C5.33417 7.88442 5.29235 7.87518 5.25001 7.87516V8.16683ZM11.6667 8.16683V8.4585C11.744 8.4585 11.8182 8.42777 11.8729 8.37307C11.9276 8.31837 11.9583 8.24418 11.9583 8.16683H11.6667ZM10.5 2.04183L3.87334 2.04183V2.62516L10.5 2.62516V2.04183ZM3.17334 8.4585L5.25001 8.4585V7.87516L3.17334 7.87516V8.4585ZM4.96243 8.119L4.49226 10.9394L5.06743 11.0357L5.53759 8.21466L4.96243 8.119ZM5.35501 11.9585H5.47926V11.3752H5.35501V11.9585ZM7.17851 11.0491L8.64618 8.84816L8.16084 8.52441L6.69376 10.7259L7.17909 11.0491H7.17851ZM9.37418 8.4585L11.6667 8.4585V7.87516L9.37418 7.87516V8.4585ZM11.9583 8.16683L11.9583 3.50016H11.375L11.375 8.16683H11.9583ZM2.44301 3.21433L1.74301 6.71433L2.31468 6.82866L3.01468 3.32866L2.44301 3.21433ZM8.64618 8.84816C8.72607 8.72831 8.83432 8.63003 8.96132 8.56205C9.08832 8.49408 9.23013 8.45851 9.37418 8.4585V7.87516C9.13412 7.87516 8.89777 7.93442 8.68611 8.04767C8.47445 8.16093 8.29403 8.32469 8.16084 8.52441L8.64618 8.84816ZM4.49226 10.9394C4.47134 11.0648 4.47796 11.1931 4.51168 11.3157C4.54539 11.4382 4.60539 11.5519 4.6875 11.6489C4.7696 11.7459 4.87185 11.8238 4.98712 11.8773C5.1024 11.9307 5.22794 11.9585 5.35501 11.9585V11.3752C5.31262 11.3752 5.27073 11.3661 5.23225 11.3483C5.19377 11.3305 5.15963 11.3046 5.1322 11.2722C5.10477 11.2399 5.08471 11.202 5.07342 11.1612C5.06214 11.1203 5.05989 11.0775 5.06684 11.0357L4.49226 10.9394ZM3.17334 7.87516C3.04389 7.87517 2.91605 7.84645 2.79903 7.79108C2.68202 7.73571 2.57875 7.65507 2.49666 7.55496C2.41458 7.45486 2.35574 7.33779 2.32437 7.21219C2.293 7.0866 2.2893 6.95561 2.31468 6.82866L1.74301 6.71433C1.70074 6.92582 1.70648 7.14406 1.75871 7.35331C1.81094 7.56257 1.90893 7.75763 2.04562 7.92446C2.18232 8.09128 2.35432 8.22571 2.54922 8.31805C2.74412 8.4104 2.95708 8.45837 3.17276 8.4585V7.87516H3.17334ZM3.87334 2.04183C3.53613 2.04176 3.20932 2.15856 2.94853 2.37234C2.68775 2.58611 2.5091 2.88366 2.44301 3.21433L3.01468 3.32866C3.05435 3.13018 3.1616 2.95159 3.31817 2.82332C3.47474 2.69504 3.67094 2.62501 3.87334 2.62516V2.04183ZM5.47984 11.9585C5.81606 11.9585 6.14709 11.8756 6.44353 11.7169C6.73997 11.5583 6.99263 11.3289 7.17909 11.0491L6.69376 10.7259C6.56058 10.9256 6.38015 11.0894 6.16849 11.2027C5.95683 11.3159 5.72048 11.3752 5.48043 11.3752V11.9585H5.47984ZM10.5 2.62516C10.7321 2.62516 10.9546 2.71735 11.1187 2.88144C11.2828 3.04554 11.375 3.2681 11.375 3.50016H11.9583C11.9583 3.30865 11.9206 3.11902 11.8473 2.94208C11.774 2.76515 11.6666 2.60438 11.5312 2.46896C11.3958 2.33355 11.235 2.22613 11.0581 2.15284C10.8812 2.07955 10.6915 2.04183 10.5 2.04183V2.62516Z" fill="#6D6D6D"/>
<path d="M9.33334 8.16699L9.33334 2.33366" stroke="#6D6D6D"/>
</svg>
