<svg width="14" height="14" viewBox="0 0 14 14" fill="none" xmlns="http://www.w3.org/2000/svg">
<path d="M8.74999 5.83317L8.46241 5.78534C8.45546 5.8271 8.4577 5.86988 8.46895 5.91069C8.4802 5.95151 8.50021 5.98938 8.52757 6.02169C8.55494 6.054 8.58901 6.07996 8.62742 6.09777C8.66583 6.11558 8.70765 6.12482 8.74999 6.12484V5.83317ZM2.33332 5.83317V5.5415C2.25597 5.5415 2.18178 5.57223 2.12708 5.62693C2.07239 5.68163 2.04166 5.75582 2.04166 5.83317H2.33332ZM3.49999 11.9582H10.1267V11.3748H3.49999V11.9582ZM10.8267 5.5415H8.74999V6.12484H10.8267V5.5415ZM9.03757 5.881L9.50774 3.06059L8.93257 2.96434L8.46241 5.78534L9.03757 5.881ZM8.64499 2.0415H8.52074V2.62484H8.64499V2.0415ZM6.82149 2.95092L5.35382 5.15184L5.83916 5.47559L7.30624 3.27409L6.82091 2.95092H6.82149ZM4.62582 5.5415H2.33332V6.12484H4.62582V5.5415ZM2.04166 5.83317V10.4998H2.62499V5.83317H2.04166ZM11.557 10.7857L12.257 7.28567L11.6853 7.17134L10.9853 10.6713L11.557 10.7857ZM5.35382 5.15184C5.27393 5.27169 5.16568 5.36997 5.03868 5.43795C4.91168 5.50592 4.76987 5.54149 4.62582 5.5415V6.12484C4.86588 6.12484 5.10223 6.06558 5.31389 5.95233C5.52555 5.83907 5.70597 5.67531 5.83916 5.47559L5.35382 5.15184ZM9.50774 3.06059C9.52866 2.93525 9.52204 2.80686 9.48832 2.68434C9.45461 2.56182 9.39461 2.44812 9.3125 2.35113C9.2304 2.25415 9.12815 2.17621 9.01288 2.12274C8.8976 2.06927 8.77206 2.04155 8.64499 2.0415V2.62484C8.68738 2.62477 8.72927 2.63395 8.76775 2.65172C8.80623 2.6695 8.84037 2.69545 8.8678 2.72776C8.89523 2.76008 8.91529 2.79798 8.92658 2.83884C8.93786 2.8797 8.94011 2.92252 8.93316 2.96434L9.50774 3.06059ZM10.8267 6.12484C10.9561 6.12483 11.084 6.15355 11.201 6.20892C11.318 6.26429 11.4213 6.34493 11.5033 6.44504C11.5854 6.54514 11.6443 6.66221 11.6756 6.78781C11.707 6.9134 11.7107 7.04439 11.6853 7.17134L12.257 7.28567C12.2993 7.07418 12.2935 6.85594 12.2413 6.64669C12.1891 6.43743 12.0911 6.24237 11.9544 6.07554C11.8177 5.90872 11.6457 5.77429 11.4508 5.68195C11.2559 5.5896 11.0429 5.54163 10.8272 5.5415V6.12484H10.8267ZM10.1267 11.9582C10.4639 11.9582 10.7907 11.8414 11.0515 11.6277C11.3123 11.4139 11.4909 11.1163 11.557 10.7857L10.9853 10.6713C10.9457 10.8698 10.8384 11.0484 10.6818 11.1767C10.5253 11.305 10.3291 11.375 10.1267 11.3748V11.9582ZM8.52016 2.0415C8.18394 2.04145 7.85291 2.12444 7.55647 2.28309C7.26003 2.44174 7.00737 2.67114 6.82091 2.95092L7.30624 3.27409C7.43942 3.07436 7.61985 2.91061 7.83151 2.79735C8.04317 2.68409 8.27952 2.62483 8.51957 2.62484V2.0415H8.52016ZM3.49999 11.3748C3.26793 11.3748 3.04537 11.2827 2.88127 11.1186C2.71718 10.9545 2.62499 10.7319 2.62499 10.4998H2.04166C2.04166 10.6913 2.07938 10.881 2.15267 11.0579C2.22595 11.2349 2.33337 11.3956 2.46879 11.531C2.60421 11.6665 2.76498 11.7739 2.94191 11.8472C3.11884 11.9204 3.30848 11.9582 3.49999 11.9582V11.3748Z" fill="#6D6D6D"/>
<path d="M4.66666 5.83301V11.6663" stroke="#6D6D6D"/>
</svg>
