<svg width="19" height="19" viewBox="0 0 19 19" fill="none" xmlns="http://www.w3.org/2000/svg">
<path d="M5.49418 3.95815C5.49397 4.37807 5.32696 4.78072 5.02987 5.0775C4.73279 5.37429 4.32998 5.5409 3.91006 5.54069C3.49013 5.54048 3.08749 5.37346 2.7907 5.07638C2.49392 4.7793 2.3273 4.37649 2.32751 3.95657C2.32772 3.53664 2.49474 3.134 2.79182 2.83721C3.0889 2.54043 3.49171 2.37381 3.91164 2.37402C4.33157 2.37423 4.73421 2.54125 5.03099 2.83833C5.32778 3.13541 5.49439 3.53822 5.49418 3.95815ZM5.54168 6.71315H2.37501V16.6248H5.54168V6.71315ZM10.545 6.71315H7.39418V16.6248H10.5133V11.4236C10.5133 8.52607 14.2896 8.2569 14.2896 11.4236V16.6248H17.4167V10.3469C17.4167 5.46231 11.8275 5.6444 10.5133 8.04315L10.545 6.71315Z" fill="black"/>
</svg>
