<svg width="24" height="24" viewBox="0 0 24 24" fill="none" xmlns="http://www.w3.org/2000/svg">
<path d="M12 22C17.5228 22 22 17.5228 22 12C22 6.47715 17.5228 2 12 2C6.47715 2 2 6.47715 2 12C2 17.5228 6.47715 22 12 22Z" stroke="#CCCCCC" stroke-width="1.5"/>
<path d="M9 16C9.85 16.63 10.885 17 12 17C13.115 17 14.15 16.63 15 16" stroke="#CCCCCC" stroke-width="1.5" stroke-linecap="round"/>
<path d="M16 10.5C16 11.328 15.552 12 15 12C14.448 12 14 11.328 14 10.5C14 9.672 14.448 9 15 9C15.552 9 16 9.672 16 10.5Z" fill="#CCCCCC"/>
<path d="M9 12C9.55228 12 10 11.3284 10 10.5C10 9.67157 9.55228 9 9 9C8.44772 9 8 9.67157 8 10.5C8 11.3284 8.44772 12 9 12Z" fill="#CCCCCC"/>
</svg>
