<svg width="19" height="19" viewBox="0 0 19 19" fill="none" xmlns="http://www.w3.org/2000/svg">
<path d="M5.96838 17.8125C13.1385 17.8125 17.0608 11.8714 17.0608 6.72837C17.0608 6.56212 17.0608 6.3935 17.0537 6.22725C17.8173 5.67445 18.4764 4.99005 19 4.20612C18.2867 4.52063 17.5308 4.72792 16.7568 4.82125C17.5721 4.33394 18.1827 3.56721 18.4751 2.66356C17.7092 3.11733 16.8708 3.43588 15.9968 3.60525C15.4092 2.97946 14.6317 2.5649 13.7846 2.42577C12.9375 2.28665 12.0682 2.43072 11.3113 2.83567C10.5544 3.24063 9.95221 3.88387 9.59791 4.66576C9.24361 5.44765 9.15702 6.32454 9.35156 7.16062C7.80157 7.0829 6.28522 6.68024 4.90086 5.97876C3.51651 5.27727 2.29506 4.29263 1.31575 3.08869C0.818591 3.94735 0.666869 4.96304 0.891392 5.9295C1.11592 6.89597 1.69985 7.74075 2.52462 8.29231C1.90658 8.27131 1.30212 8.10535 0.76 7.80781V7.86125C0.761066 8.76076 1.07268 9.63231 1.64216 10.3286C2.21165 11.0249 3.00408 11.5032 3.8855 11.6826C3.55094 11.7748 3.20533 11.8207 2.85831 11.8192C2.61367 11.8199 2.36951 11.7973 2.12919 11.7515C2.37831 12.5258 2.86339 13.2028 3.51648 13.6877C4.16957 14.1726 4.95797 14.441 5.77125 14.4554C4.38966 15.5406 2.68304 16.1291 0.92625 16.1262C0.616693 16.1276 0.307352 16.1097 0 16.0728C1.78305 17.2096 3.85379 17.8132 5.96838 17.8125Z" fill="#454E56"/>
</svg>
