<svg width="14" height="12" viewBox="0 0 14 12" fill="none" xmlns="http://www.w3.org/2000/svg">
<path d="M4.2 5.6002C5.55406 5.6002 6.65 4.50426 6.65 3.1502C6.65 1.79613 5.55406 0.700195 4.2 0.700195C2.84594 0.700195 1.75 1.79613 1.75 3.1502C1.75 4.50426 2.84594 5.6002 4.2 5.6002ZM5.88 6.3002H5.69844C5.24344 6.51895 4.73812 6.6502 4.2 6.6502C3.66187 6.6502 3.15875 6.51895 2.70156 6.3002H2.52C1.12875 6.3002 0 7.42895 0 8.8202V9.4502C0 10.0299 0.470312 10.5002 1.05 10.5002H7.35C7.92969 10.5002 8.4 10.0299 8.4 9.4502V8.8202C8.4 7.42895 7.27125 6.3002 5.88 6.3002ZM10.5 5.6002C11.6594 5.6002 12.6 4.65957 12.6 3.5002C12.6 2.34082 11.6594 1.4002 10.5 1.4002C9.34062 1.4002 8.4 2.34082 8.4 3.5002C8.4 4.65957 9.34062 5.6002 10.5 5.6002ZM11.55 6.3002H11.4669C11.1628 6.4052 10.8412 6.4752 10.5 6.4752C10.1587 6.4752 9.83719 6.4052 9.53312 6.3002H9.45C9.00375 6.3002 8.5925 6.42926 8.23156 6.63707C8.76531 7.21238 9.1 7.97582 9.1 8.8202V9.6602C9.1 9.70832 9.08906 9.75426 9.08687 9.8002H12.95C13.5297 9.8002 14 9.32988 14 8.7502C14 7.39613 12.9041 6.3002 11.55 6.3002Z" fill="#35B940"/>
</svg>
