<svg width="48" height="48" viewBox="0 0 48 48" fill="none" xmlns="http://www.w3.org/2000/svg">
<g clip-path="url(#clip0_13_99)">
<circle cx="24" cy="24" r="24" fill="#F5F5F5"/>
<path d="M23.9844 24.4624C19.2108 24.4714 15.2619 28.2507 15.0234 33.0269C15.0171 33.1624 15.0384 33.2978 15.086 33.4249C15.1337 33.5519 15.2067 33.6679 15.3006 33.7659C15.3945 33.8638 15.5074 33.9416 15.6323 33.9945C15.7573 34.0474 15.8917 34.0744 16.0273 34.0737H31.9805C32.1155 34.0733 32.249 34.0456 32.3731 33.9922C32.4971 33.9388 32.609 33.8608 32.7021 33.763C32.7952 33.6652 32.8675 33.5495 32.9146 33.423C32.9618 33.2965 32.9829 33.1617 32.9766 33.0269C32.7378 28.2447 28.7796 24.4629 24 24.4624H23.9844Z" fill="#B4B4B4"/>
<path d="M24.0003 13.9258C21.4699 13.9258 19.407 15.9984 19.407 18.5317C19.4069 21.0649 21.4699 23.1447 24.0003 23.1447C26.5308 23.1447 28.6009 21.0649 28.6008 18.5317C28.6008 15.9984 26.5308 13.9258 24.0003 13.9258Z" fill="#B4B4B4"/>
</g>
<defs>
<clipPath id="clip0_13_99">
<rect width="48" height="48" fill="white"/>
</clipPath>
</defs>
</svg>
