<svg width="22" height="22" viewBox="0 0 22 22" fill="none" xmlns="http://www.w3.org/2000/svg">
<path d="M9.16671 13.7502L13.9242 11.0002L9.16671 8.25016V13.7502ZM19.7634 6.57266C19.8825 7.0035 19.965 7.581 20.02 8.31433C20.0842 9.04766 20.1117 9.68016 20.1117 10.2302L20.1667 11.0002C20.1667 13.0077 20.02 14.4835 19.7634 15.4277C19.5342 16.2527 19.0025 16.7843 18.1775 17.0135C17.7467 17.1327 16.9584 17.2152 15.7484 17.2702C14.5567 17.3343 13.4659 17.3618 12.4575 17.3618L11 17.4168C7.15921 17.4168 4.76671 17.2702 3.82254 17.0135C2.99754 16.7843 2.46587 16.2527 2.23671 15.4277C2.11754 14.9968 2.03504 14.4193 1.98004 13.686C1.91587 12.9527 1.88837 12.3202 1.88837 11.7702L1.83337 11.0002C1.83337 8.99266 1.98004 7.51683 2.23671 6.57266C2.46587 5.74766 2.99754 5.216 3.82254 4.98683C4.25337 4.86766 5.04171 4.78516 6.25171 4.73016C7.44337 4.666 8.53421 4.6385 9.54254 4.6385L11 4.5835C14.8409 4.5835 17.2334 4.73016 18.1775 4.98683C19.0025 5.216 19.5342 5.74766 19.7634 6.57266Z" fill="black"/>
</svg>
